<svg xmlns="http://www.w3.org/2000/svg" width="128" height="42" viewBox="0 0 128 42" fill="none">
  <path d="M127.971 2.89976L125.885 12.6864C125.838 12.9144 125.718 13.1187 125.544 13.2653C125.37 13.4119 125.153 13.4919 124.93 13.4919H121.962C121.828 13.492 121.696 13.4634 121.573 13.4079C121.45 13.3524 121.339 13.2711 121.248 13.1691C121.156 13.0672 121.086 12.9467 121.04 12.8152C120.995 12.6837 120.977 12.5439 120.986 12.4045C120.986 12.2772 120.986 12.2257 120.986 12.2241C121.129 9.03113 119.196 6.64689 114.821 6.64689C107.547 6.64689 102.257 12.8701 101.563 21.0426C100.847 29.4825 106.508 34.3879 114.34 34.3863C117.384 34.3955 120.411 33.9246 123.319 32.9896C123.481 32.9363 123.654 32.9277 123.82 32.9646C123.986 33.0016 124.14 33.0828 124.266 33.2003C124.393 33.3178 124.489 33.4676 124.544 33.6351C124.598 33.8026 124.61 33.9821 124.579 34.1559L123.652 39.2128C123.614 39.4237 123.522 39.6201 123.386 39.7812C123.25 39.9423 123.075 40.062 122.879 40.1278C121.273 40.661 116.765 41.9144 109.865 41.9144C93.4723 41.9144 86.8222 32.0874 87.85 22.0688C88.7726 13.1472 94.4366 5.20807e-06 116.768 5.20807e-06C120.281 -0.0018601 123.777 0.49734 127.16 1.48371C127.444 1.56522 127.687 1.75801 127.838 2.02186C127.989 2.28571 128.037 2.60022 127.971 2.89976V2.89976ZM34.7689 1.50627L34.2264 4.05805C34.168 4.33282 34.2111 4.62045 34.3472 4.86353C34.4833 5.10661 34.7023 5.28725 34.9605 5.36939V5.36939C35.9048 5.74958 36.115 6.69361 35.2912 7.40082L21.5755 19.2834L23.9307 8.08549C24.3325 6.36819 25.6415 5.66903 26.4699 5.38066L26.6043 5.33717C26.7831 5.27952 26.944 5.17359 27.0708 5.03014C27.1975 4.88669 27.2856 4.71082 27.3261 4.5204L27.8886 1.86713C27.9197 1.7196 27.9185 1.56668 27.8852 1.41969C27.8519 1.27271 27.7872 1.13542 27.6961 1.01799C27.605 0.900567 27.4897 0.806018 27.3587 0.741347C27.2278 0.676676 27.0846 0.643541 26.9397 0.644395H9.25682C9.01442 0.644578 8.77931 0.730846 8.59024 0.888982C8.40118 1.04712 8.26944 1.26768 8.21674 1.51432L7.64493 4.20143C7.58969 4.46626 7.63029 4.74304 7.75895 4.97856C7.88761 5.21408 8.09524 5.39171 8.34192 5.47732L8.51656 5.54015C9.62618 5.99283 10.912 7.01258 10.3711 9.69324L6.14586 29.8111C5.04242 35.3061 3.25589 36.429 1.55128 36.6336H1.49719C1.27538 36.6611 1.06718 36.7594 0.901149 36.9152C0.735123 37.0709 0.619421 37.2765 0.569926 37.5035L0.0228419 40.0811C-0.00919681 40.2363 -0.00751215 40.3971 0.0277725 40.5516C0.0630571 40.7061 0.131048 40.8504 0.226766 40.974C0.322483 41.0975 0.443503 41.1972 0.580962 41.2657C0.718421 41.3342 0.868837 41.3698 1.02119 41.3698H19.6097C19.827 41.3697 20.038 41.2933 20.2087 41.1531C20.3794 41.0128 20.4999 40.8168 20.5509 40.5966L21.1938 37.5808C21.2442 37.3429 21.2115 37.0941 21.1015 36.8791C20.9916 36.6641 20.8117 36.4971 20.5941 36.408L20.4736 36.3581C19.5324 35.9602 18.2482 35.1128 18.5758 33.5147L20.7394 23.227C28.1498 37.3247 30.5962 41.386 39.4871 41.3843H47.5095C47.7293 41.3844 47.9426 41.3064 48.1142 41.1632C48.2859 41.02 48.4056 40.8202 48.4537 40.5966L49.0163 37.9836C49.0506 37.8268 49.0512 37.664 49.0178 37.507C48.9845 37.3499 48.9181 37.2026 48.8235 37.0755C48.7288 36.9485 48.6083 36.845 48.4706 36.7725C48.3329 36.6999 48.1814 36.6602 48.0272 36.6561C46.0181 36.6239 45.0337 36.139 43.037 33.4616L32.7366 18.929L46.1232 7.32994C47.919 5.86557 50.1104 5.45477 51.3236 5.28561L51.4457 5.27273C51.6527 5.25245 51.8482 5.16437 52.0042 5.02111C52.1603 4.87786 52.2688 4.68679 52.3142 4.47529L52.8613 1.89773C52.8946 1.7476 52.8949 1.59156 52.8622 1.44127C52.8296 1.29098 52.7647 1.15033 52.6726 1.02982C52.5805 0.909314 52.4634 0.812057 52.3302 0.745317C52.1969 0.678576 52.051 0.644077 51.9031 0.644395H35.7981C35.5584 0.645553 35.326 0.731407 35.1391 0.887942C34.9522 1.04448 34.8217 1.26245 34.7689 1.50627V1.50627ZM84.297 12.6816H87.4281C87.6499 12.6816 87.8651 12.6028 88.0382 12.4581C88.2113 12.3134 88.3319 12.1115 88.3801 11.8858L90.5097 1.88001C90.5406 1.73131 90.5391 1.57728 90.5055 1.42922C90.4719 1.28116 90.4069 1.14282 90.3153 1.02434C90.2237 0.905857 90.1079 0.810242 89.9763 0.744499C89.8446 0.678756 89.7005 0.644552 89.5546 0.644395H56.6229C56.38 0.644293 56.1444 0.730624 55.955 0.889106C55.7655 1.04759 55.6337 1.26873 55.5813 1.51593L55.0141 4.18854C54.9604 4.4415 54.997 4.70621 55.117 4.93307C55.2371 5.15993 55.4323 5.33338 55.6663 5.42094L55.7775 5.46121C56.8593 5.89295 58.3708 6.9868 57.7124 9.67552L51.2571 40.1519C51.2257 40.3 51.2265 40.4536 51.2596 40.6013C51.2926 40.749 51.3571 40.887 51.4481 41.0053C51.5392 41.1236 51.6546 41.219 51.7857 41.2846C51.9169 41.3502 52.0605 41.3843 52.206 41.3843H67.019C67.2405 41.3844 67.4553 41.3057 67.6281 41.1613C67.8009 41.0169 67.9213 40.8155 67.9695 40.5901L68.6139 37.547C68.6603 37.3295 68.6332 37.102 68.5371 36.903C68.4411 36.704 68.2821 36.5456 68.0869 36.4548L67.9432 36.3855C67.0036 35.9022 65.605 34.8003 66.0732 32.6674C66.1258 32.3806 67.5321 25.7756 67.5321 25.7756H80.1274C80.3507 25.7752 80.5672 25.6951 80.7407 25.5485C80.9142 25.4019 81.0343 25.1978 81.081 24.9701L82.2663 19.4058C82.298 19.2566 82.2971 19.1018 82.2638 18.9529C82.2305 18.8041 82.1655 18.6649 82.0737 18.5457C81.9819 18.4265 81.8656 18.3303 81.7333 18.2642C81.6011 18.1981 81.4563 18.1638 81.3097 18.1637H69.1471L71.4173 7.37022L79.9172 7.35894C82.6635 7.35894 83.5011 8.85392 83.3419 11.4041C83.3419 11.4041 83.3419 11.4363 83.328 11.5394C83.3124 11.6822 83.3258 11.8269 83.3673 11.964C83.4087 12.1011 83.4773 12.2276 83.5687 12.3353C83.6601 12.4429 83.7721 12.5294 83.8976 12.5891C84.023 12.6487 84.1591 12.6803 84.297 12.6816Z" fill="#252422"/>
</svg>
