<svg xmlns="http://www.w3.org/2000/svg" width="42" height="42" viewBox="0 0 42 42" fill="none">
  <path d="M8.1224 37.5863C11.6827 40.3434 16.1514 42 20.9998 42C26.3056 42 31.1426 40.0293 34.8341 36.7945C34.8788 36.7549 34.8568 36.7288 34.8126 36.7549C33.1561 37.8617 28.4349 40.2776 21.0001 40.2776C14.5389 40.2776 10.4556 38.8354 8.14977 37.5478C8.10565 37.526 8.08931 37.5591 8.1224 37.5863ZM22.4253 38.6598C27.5931 38.6598 33.2718 37.2505 36.6682 34.4608C37.5976 33.7007 38.4829 32.689 39.2758 31.3295C39.7322 30.5472 40.1786 29.6178 40.5422 28.7043C40.5584 28.6597 40.5309 28.6381 40.4974 28.6882C37.339 33.338 28.193 36.2382 18.7493 36.2382C12.0742 36.2382 4.8918 34.1027 2.07985 30.0252C2.05218 29.9875 2.0245 30.0037 2.04135 30.047C4.66088 35.617 12.6079 38.6598 22.4253 38.6598ZM16.7791 29.4194C6.03111 29.4194 0.963225 24.4116 0.0439176 20.9941C0.0325807 20.9447 0 20.9555 0 20.9999C0 22.1504 0.115105 23.6352 0.313142 24.6206C0.407616 25.1004 0.79787 25.8532 1.37002 26.4533C3.9726 29.1672 10.4612 32.9699 21.6983 32.9699C37.0085 32.9699 40.5092 27.8679 41.224 26.1901C41.7352 24.9901 42 22.8216 42 21C42 20.5593 41.989 20.2072 41.9723 19.8615C41.9723 19.8054 41.9398 19.8008 41.9286 19.8555C41.1635 23.961 28.0827 29.4194 16.7791 29.4194ZM2.0245 11.9909C1.40863 13.2137 0.725968 15.2765 0.523028 16.3441C0.434069 16.8016 0.471961 17.0212 0.632311 17.3626C1.92053 20.0969 8.43656 24.4719 23.6359 24.4719C32.9087 24.4719 40.112 22.1928 41.2789 18.034C41.4938 17.2684 41.5054 16.4601 41.2293 15.3709C40.9209 14.1538 40.3432 12.7345 39.8543 11.7378C39.8381 11.7053 39.8096 11.7101 39.8155 11.7486C39.9971 17.2033 24.7917 20.7189 17.1197 20.7189C8.80956 20.7189 1.87661 17.4065 1.87661 13.2241C1.87661 12.8222 1.95974 12.4203 2.06351 12.002C2.07393 11.9637 2.04125 11.9574 2.0245 11.9909ZM34.8681 5.29362C34.9563 5.43196 35.0004 5.57961 35.0004 5.77834C35.0004 8.11162 27.8621 12.2393 16.499 12.2393C8.14977 12.2393 6.58661 9.14073 6.58661 7.17017C6.58661 6.46577 6.85666 5.74503 7.45138 5.01304C7.48386 4.96952 7.45628 4.95276 7.4188 4.98515C6.33414 5.90473 5.33752 6.93946 4.46325 8.05644C4.04552 8.58469 3.78621 9.05266 3.78621 9.33303C3.78621 13.4167 14.0217 16.3775 23.5921 16.3775C33.7896 16.3775 38.3406 13.0472 38.3406 10.1205C38.3406 9.07452 37.9336 8.46392 36.8925 7.28011C36.2167 6.51002 35.5774 5.88297 34.9008 5.26572C34.8681 5.23875 34.8453 5.26072 34.8681 5.29362ZM31.7419 2.96084C28.5947 1.07366 24.9401 0 21.0001 0C17.0326 0 13.2678 1.11116 10.1093 3.04831C9.16192 3.63163 8.62868 4.09908 8.62868 4.69998C8.62868 6.47129 12.7666 8.37585 20.1079 8.37585C27.373 8.37585 33.0079 6.28973 33.0079 4.28167C33.0079 3.80236 32.5892 3.46702 31.7419 2.96084Z" fill="#252422"/>
</svg>
