<svg xmlns="http://www.w3.org/2000/svg" width="171" height="42" viewBox="0 0 171 42" fill="none">
  <path d="M15.062 1.64893H0V8.45715H4.44556V29.0839C4.44556 29.0839 4.44556 41.9698 18.0465 41.9698C18.0465 41.9698 23.8133 42.0786 27.2174 37.3222C27.2174 37.3222 30.093 41.9698 35.5644 41.9698C35.5644 41.9698 40.725 42.4828 44.2224 39.2807C44.2224 39.2807 51.4348 34.4466 51.3415 19.4778C51.3415 19.4778 51.1394 8.23954 48.4659 1.64893H36.0774V8.45715H39.7924C39.7924 8.45715 41.7509 14.0219 41.7509 21.141C41.7509 21.141 41.9685 25.4 39.7924 29.9077C39.7924 29.9077 38.4556 33.1098 35.5644 33.1098C35.5644 33.1098 32.9842 33.0165 33.0774 29.9077V1.64893H18.0309V8.45715H22.4765V29.3948C22.4765 29.3948 22.4765 33.0942 18.7615 33.0942C18.7615 33.0942 15.0465 33.0942 15.0465 29.3948V1.64893" fill="#252422"/>
  <path d="M60.7767 4.71094C60.7767 4.71094 67.0409 4.71094 67.0409 9.54509C67.0409 9.54509 67.0565 14.3948 60.7767 14.3948C60.7767 14.3948 54.4815 14.3948 54.4815 9.54509C54.4815 9.56063 54.4348 4.71094 60.7767 4.71094Z" fill="#252422"/>
  <path d="M82.1187 19.9907C82.3052 19.8508 82.5228 19.5088 82.5228 19.5088C84.2637 16.9752 85.585 12.2654 85.585 12.2654C85.9891 10.9597 86.0513 9.1566 86.0513 9.1566C86.0513 7.9908 85.585 6.8561 85.585 6.8561C85.0254 5.72139 84.2016 5.73694 84.2016 5.73694C83.1757 5.73694 82.3829 7.13589 82.3829 7.13589C81.6524 8.33277 81.6524 10.4623 81.6524 10.4623V19.1669C81.6835 20.3793 82.1187 19.9907 82.1187 19.9907ZM95.8439 29.1771C95.4398 30.2497 94.8958 31.3999 94.8958 31.3999C94.7092 31.6797 94.6626 32.0372 94.6626 32.0372C94.7092 32.3792 94.8958 32.7056 94.8958 32.7056C95.3621 33.4673 96.0305 33.8714 96.0305 33.8714C96.7299 34.4465 97.8802 34.4465 97.8802 34.4465C99.3102 34.4465 99.9786 33.3429 99.9786 33.3429C100.663 32.3947 100.663 31.3222 100.663 31.3222C100.663 30.6227 100.165 29.6745 100.165 29.6745C99.761 28.8507 98.9683 27.3585 98.9683 27.3585C98.502 26.5969 98.0356 25.602 98.0356 25.602C97.818 25.0425 97.616 25.1046 97.616 25.1046C97.3983 25.1046 97.2118 25.6953 97.2118 25.6953C96.4812 27.7626 95.8439 29.1771 95.8439 29.1771ZM53.3314 15.2498H65.6111V31.4932C65.6111 31.4932 65.6111 33.3584 67.3053 33.3584C67.3053 33.3584 69.4038 33.0942 70.6317 31.0735C70.6317 31.0735 72.497 28.6953 72.497 26.7523V7.1048C72.497 7.1048 72.7457 0.00123747 82.3052 0.00123747C82.3052 0.00123747 91.7714 -0.309641 91.7714 8.92344C91.7714 8.92344 92.2844 13.2602 88.8026 19.4311C88.8026 19.4311 87.2482 22.3067 85.4917 24.9337C85.4917 24.9337 84.2016 26.9544 82.9736 28.7108C82.9736 28.7108 81.9943 29.7989 81.9943 31.1823C81.9943 31.1823 81.8855 33.5139 84.357 33.5139C84.357 33.5139 86.5176 33.4673 88.2274 31.6175C88.2274 31.6175 90.7611 29.2238 92.0979 25.4155C92.0979 25.4155 94.2118 20.8301 94.3206 15.2653H103.336C103.336 15.2653 103.383 16.1358 103.647 17.0684C103.647 17.0684 103.958 18.4674 105.745 20.9389C105.745 20.9389 108.279 24.5606 109.041 25.8974C109.041 25.8974 110.937 28.7264 110.937 32.3015C110.937 32.3015 110.906 35.8455 108.419 38.317C108.419 38.317 105.637 41.7832 101.549 41.7832C101.549 41.7832 98.7196 41.7832 96.2015 40.3687C96.2015 40.3687 93.1082 38.7211 91.7559 36.8869C91.7559 36.8869 91.6315 36.6693 91.2585 36.6693C91.2585 36.6693 90.9632 36.7004 90.7456 36.9025C90.7456 36.9025 88.9269 38.8454 86.9684 39.9335C86.9684 39.9335 84.3726 41.7988 80.6109 41.7988C80.6109 41.7988 77.2068 41.7988 75.1395 39.8092C75.1395 39.8092 73.3364 38.317 72.9944 36.576C72.9944 36.576 72.8856 36.2962 72.6058 36.2962C72.6058 36.2962 72.326 36.3429 72.1706 36.5605C72.1706 36.5605 70.5696 38.4258 68.5489 39.8247C68.5489 39.8247 66.3883 41.8143 62.5645 41.8143C62.5645 41.8143 59.1137 41.861 57.3106 39.9957C57.3106 39.9957 55.2899 38.2237 55.2899 35.5501V21.2808C55.2899 21.2808 55.3987 19.9441 53.3003 19.9441V15.2498H53.3314Z" fill="#252422"/>
  <path d="M125.159 34.8351C125.159 34.8351 126.838 34.9128 127.459 33.6071C127.459 33.6071 128.19 32.2082 128.33 28.2911V28.26C128.206 24.3274 127.459 22.944 127.459 22.944C126.838 21.6228 125.159 21.7005 125.159 21.7005H125.081C125.081 21.7005 123.387 21.6228 122.75 22.944C122.75 22.944 122.035 24.3274 121.879 28.2445V28.2756C122.035 32.1926 122.75 33.5916 122.75 33.5916C123.371 34.8973 125.081 34.8195 125.081 34.8195H125.159V34.8351ZM111.636 28.2445C111.636 28.2445 111.853 21.8559 115.646 18.5606C115.646 18.5606 119.361 14.8456 125.299 14.8456C125.299 14.8456 131.221 14.8923 134.408 18.1876C134.408 18.1876 135.402 19.1202 135.9 19.8974C135.9 19.8974 136.257 20.3015 136.584 19.9285C136.584 19.9285 138.48 17.7212 139.724 16.8974C139.724 16.8974 142.257 14.799 145.086 14.799C145.086 14.799 147.402 14.7368 148.692 15.9803C148.692 15.9803 150.231 17.2705 151.024 18.8715C151.024 18.8715 151.444 19.5399 152.05 18.9181C152.05 18.9181 153.356 17.5347 154.848 16.4933C154.848 16.4933 157.242 14.6436 160.677 14.6436C160.677 14.6436 163.723 14.7368 165.153 16.1824C165.153 16.1824 167.687 18.1876 167.687 20.9855V35.3169C167.687 35.3169 167.687 37.0579 169.226 37.1356H170.78V41.5656H162.464C162.464 41.5656 157.475 41.519 157.475 36.0475V25.7885C157.475 25.7885 157.475 23.6124 154.77 23.6124C154.77 23.6124 151.786 23.6746 151.786 26.146V41.5656H141.604V25.7264C141.604 25.7264 141.542 24.2341 140.376 24.2341C140.376 24.2341 139.288 24.3896 138.667 25.1823C138.667 25.1823 138.138 25.6331 138.418 26.3637C138.418 26.3637 138.604 27.4517 138.604 28.6797C138.604 28.6797 138.651 34.5087 134.936 37.9128C134.936 37.9128 131.345 41.7987 125.361 41.7987C125.361 41.7987 119.423 41.7987 116.035 38.3635C116.019 38.348 111.636 34.804 111.636 28.2445Z" fill="#252422"/>
</svg>
